<?xml version="1.0" encoding="utf-8"?>
<!-- Generator: Adobe Illustrator 19.0.0, SVG Export Plug-In . SVG Version: 6.00 Build 0)  -->
<svg version="1.1" xmlns="http://www.w3.org/2000/svg" xmlns:xlink="http://www.w3.org/1999/xlink" x="0px" y="0px"
	 viewBox="0 0 500 500" style="enable-background:new 0 0 500 500;" xml:space="preserve">
<style type="text/css">
	.st0{display:none;}
	.st1{display:inline;fill:#FFFFFF;}
	.st2{display:inline;}
	.st3{fill:#FFFFFF;}
	.st4{fill:#A1AB38;}
	.st5{fill:#F5BB3B;}
	.st6{fill:#C34428;}
	.st7{fill:#A47733;}
	.st8{fill:#8F5623;}
	.st9{fill:#683114;}
	.st10{fill:#F3AB51;}
	.st11{fill:#ED8832;}
	.st12{fill:#141829;}
	.st13{fill:#3A8388;}
	.st14{fill:#91261D;}
	.st15{fill:#EEC33B;}
	.st16{fill:#405757;}
	.st17{fill:#926E33;}
	.st18{fill:#CA9330;}
	.st19{fill:#373634;}
	.st20{fill:#E4D5B4;}
	.st21{fill:#CB382A;}
	.st22{fill:#3B3D30;}
	.st23{fill:#5B5E4A;}
	.st24{fill:#9D997A;}
</style>
<g id="Layer_1" class="st0">
	<rect id="XMLID_4_" x="0.5" y="0" class="st1" width="500" height="500"/>
	<g id="XMLID_1_" class="st2">
		<path id="XMLID_2_" d="M117.1,163.6c0,0-2.6-29.2,25.2-38.1c0,0,12-5.4,46.4,5.7c0,0,32.7,10.8,73.7,9.2c0,0,22.8,2.1,57.4-12.9
			c0,0,26.4-17.7,46.6,0.2c0,0,23.5,19.3,5.2,47.8c0,0-3.5,10.5-47,39.8c0,0-44.7,26-69.1,56.1c0,0-31.3,27.6-53.6,76
			c-1.4,3.2-7.4,16.2-22.2,22.5c-21.5,9.2-41.4-4.7-42.5-5.5c-0.7-0.5-17.3-12.2-15.9-32.2c1-14.2,10.7-26.7,24.5-31.5
			c0,0,57.4-24.7,137.9-91.2c0,0,31.7-25.8-1.1-37c0,0-27.9-13.4-122.9,22.5C159.8,194.7,124.8,198.4,117.1,163.6z"/>
		<path id="XMLID_3_" d="M251,352.4c0,0-1.5,12.9,30.2,10.1c0,0,22.2-1.9,62.6,9.7c0,0,27.2,5.2,37.6-22c0,0,12.9-28.1-18.8-45.5
			c-2.5-1.1-5.8-2.3-9.8-2.7c-10.3-1.1-18.3,3.2-21.4,5.1c-7.8,6.1-16.7,12.5-26.8,18.6c-18.5,11.3-36,19.1-51.2,24.5
			C252.6,350.9,251.8,351.6,251,352.4z"/>
	</g>
</g>
<g id="_x31_960">
	<rect id="XMLID_20_" x="0.5" y="0" class="st3" width="500" height="500"/>
	<g id="XMLID_10_">
		<path id="XMLID_15_" class="st4" d="M371.6,175.3c18.4-28.5-5.2-47.8-5.2-47.8c-20.2-17.9-46.6-0.2-46.6-0.2
			c-34.6,15.1-57.4,12.9-57.4,12.9c-5.4,0.2-10.6,0.2-15.6,0.1l30.4,30.4c3.9,0.7,5.6,1.5,5.6,1.5c13.5,4.6,16,11.7,14.4,18.5
			l25.6,25.6c1.2-0.7,1.9-1.1,1.9-1.1C368.1,185.9,371.6,175.3,371.6,175.3z"/>
	</g>
	<g id="XMLID_5_">
		<path id="XMLID_19_" class="st5" d="M142.3,125.4c-27.8,8.9-25.2,38.1-25.2,38.1c7.7,34.9,42.7,31.2,42.7,31.2
			c80.4-30.4,112.8-25.5,120.8-23.3l-31.1-31.1c-34.8-0.7-60.9-9.3-60.9-9.3C154.3,120,142.3,125.4,142.3,125.4z"/>
		<path id="XMLID_22_" class="st5" d="M255.5,271.2c23.4-28.9,65.7-54.1,68.9-56l-26.9-26.9c-0.9,10.5-13.7,20.9-13.7,20.9
			c-32.9,27.2-62,47.4-84.8,61.8l30.2,30.2C243.6,281.7,255.5,271.2,255.5,271.2z"/>
		<path id="XMLID_23_" class="st5" d="M381.4,350.2c0,0,12.9-28.1-18.8-45.5c-2.5-1.1-5.8-2.3-9.8-2.7c-10.3-1.1-18.3,3.2-21.4,5.1
			c-7.8,6.1-16.7,12.5-26.8,18.6c-11.6,7.1-22.9,12.8-33.5,17.5l19.4,19.4c10.1,0.5,28.2,2.5,53.3,9.7
			C343.8,372.2,371,377.4,381.4,350.2z"/>
	</g>
	<g id="XMLID_8_">
		<path id="XMLID_16_" class="st6" d="M121.3,331.9c-1.4,20,15.1,31.7,15.9,32.2c1.1,0.8,20.9,14.7,42.5,5.5
			c14.8-6.3,20.8-19.3,22.2-22.5c8.8-19,18.9-34.7,28-46.9L200,270.4c-33.6,21.3-54.1,30.1-54.1,30.1
			C132,305.2,122.3,317.7,121.3,331.9z"/>
		<path id="XMLID_21_" class="st6" d="M251,352.4c0,0-1.5,12.9,30.2,10.1c0,0,3.8-0.3,11,0.1l-20-20c-6.6,2.9-12.9,5.4-18.8,7.6
			C252.6,350.9,251.8,351.6,251,352.4z"/>
	</g>
</g>
<g id="_x32_000BC">
	<rect id="XMLID_24_" x="0.5" y="0" class="st3" width="500" height="500"/>
	<g id="XMLID_17_">
		<path id="XMLID_18_" class="st7" d="M371.6,175.3c18.4-28.5-5.2-47.8-5.2-47.8c-20.2-17.9-46.6-0.2-46.6-0.2
			c-34.6,15.1-57.4,12.9-57.4,12.9c-5.4,0.2-10.6,0.2-15.6,0.1l30.4,30.4c3.9,0.7,5.6,1.5,5.6,1.5c13.5,4.6,16,11.7,14.4,18.5
			l25.6,25.6c1.2-0.7,1.9-1.1,1.9-1.1C368.1,185.9,371.6,175.3,371.6,175.3z"/>
	</g>
	<g id="XMLID_11_">
		<path id="XMLID_14_" class="st8" d="M142.3,125.4c-27.8,8.9-25.2,38.1-25.2,38.1c7.7,34.9,42.7,31.2,42.7,31.2
			c80.4-30.4,112.8-25.5,120.8-23.3l-31.1-31.1c-34.8-0.7-60.9-9.3-60.9-9.3C154.3,120,142.3,125.4,142.3,125.4z"/>
		<path id="XMLID_13_" class="st8" d="M255.5,271.2c23.4-28.9,65.7-54.1,68.9-56l-26.9-26.9c-0.9,10.5-13.7,20.9-13.7,20.9
			c-32.9,27.2-62,47.4-84.8,61.8l30.2,30.2C243.6,281.7,255.5,271.2,255.5,271.2z"/>
		<path id="XMLID_12_" class="st8" d="M381.4,350.2c0,0,12.9-28.1-18.8-45.5c-2.5-1.1-5.8-2.3-9.8-2.7c-10.3-1.1-18.3,3.2-21.4,5.1
			c-7.8,6.1-16.7,12.5-26.8,18.6c-11.6,7.1-22.9,12.8-33.5,17.5l19.4,19.4c10.1,0.5,28.2,2.5,53.3,9.7
			C343.8,372.2,371,377.4,381.4,350.2z"/>
	</g>
	<g id="XMLID_6_">
		<path id="XMLID_9_" class="st9" d="M121.3,331.9c-1.4,20,15.1,31.7,15.9,32.2c1.1,0.8,20.9,14.7,42.5,5.5
			c14.8-6.3,20.8-19.3,22.2-22.5c8.8-19,18.9-34.7,28-46.9L200,270.4c-33.6,21.3-54.1,30.1-54.1,30.1
			C132,305.2,122.3,317.7,121.3,331.9z"/>
		<path id="XMLID_7_" class="st9" d="M251,352.4c0,0-1.5,12.9,30.2,10.1c0,0,3.8-0.3,11,0.1l-20-20c-6.6,2.9-12.9,5.4-18.8,7.6
			C252.6,350.9,251.8,351.6,251,352.4z"/>
	</g>
</g>
<g id="_x30_">
	<rect id="XMLID_34_" x="0.5" y="0" class="st3" width="500" height="500"/>
	<g id="XMLID_32_">
		<path id="XMLID_33_" class="st10" d="M371.6,175.3c18.4-28.5-5.2-47.8-5.2-47.8c-20.2-17.9-46.6-0.2-46.6-0.2
			c-34.6,15.1-57.4,12.9-57.4,12.9c-5.4,0.2-10.6,0.2-15.6,0.1l30.4,30.4c3.9,0.7,5.6,1.5,5.6,1.5c13.5,4.6,16,11.7,14.4,18.5
			l25.6,25.6c1.2-0.7,1.9-1.1,1.9-1.1C368.1,185.9,371.6,175.3,371.6,175.3z"/>
	</g>
	<g id="XMLID_28_">
		<path id="XMLID_31_" class="st11" d="M142.3,125.4c-27.8,8.9-25.2,38.1-25.2,38.1c7.7,34.9,42.7,31.2,42.7,31.2
			c80.4-30.4,112.8-25.5,120.8-23.3l-31.1-31.1c-34.8-0.7-60.9-9.3-60.9-9.3C154.3,120,142.3,125.4,142.3,125.4z"/>
		<path id="XMLID_30_" class="st11" d="M255.5,271.2c23.4-28.9,65.7-54.1,68.9-56l-26.9-26.9c-0.9,10.5-13.7,20.9-13.7,20.9
			c-32.9,27.2-62,47.4-84.8,61.8l30.2,30.2C243.6,281.7,255.5,271.2,255.5,271.2z"/>
		<path id="XMLID_29_" class="st11" d="M381.4,350.2c0,0,12.9-28.1-18.8-45.5c-2.5-1.1-5.8-2.3-9.8-2.7c-10.3-1.1-18.3,3.2-21.4,5.1
			c-7.8,6.1-16.7,12.5-26.8,18.6c-11.6,7.1-22.9,12.8-33.5,17.5l19.4,19.4c10.1,0.5,28.2,2.5,53.3,9.7
			C343.8,372.2,371,377.4,381.4,350.2z"/>
	</g>
	<g id="XMLID_25_">
		<path id="XMLID_27_" class="st12" d="M121.3,331.9c-1.4,20,15.1,31.7,15.9,32.2c1.1,0.8,20.9,14.7,42.5,5.5
			c14.8-6.3,20.8-19.3,22.2-22.5c8.8-19,18.9-34.7,28-46.9L200,270.4c-33.6,21.3-54.1,30.1-54.1,30.1
			C132,305.2,122.3,317.7,121.3,331.9z"/>
		<path id="XMLID_26_" class="st12" d="M251,352.4c0,0-1.5,12.9,30.2,10.1c0,0,3.8-0.3,11,0.1l-20-20c-6.6,2.9-12.9,5.4-18.8,7.6
			C252.6,350.9,251.8,351.6,251,352.4z"/>
	</g>
</g>
<g id="_x31_000">
	<rect id="XMLID_44_" x="0.5" y="0" class="st3" width="500" height="500"/>
	<g id="XMLID_42_">
		<path id="XMLID_43_" class="st13" d="M371.6,175.3c18.4-28.5-5.2-47.8-5.2-47.8c-20.2-17.9-46.6-0.2-46.6-0.2
			c-34.6,15.1-57.4,12.9-57.4,12.9c-5.4,0.2-10.6,0.2-15.6,0.1l30.4,30.4c3.9,0.7,5.6,1.5,5.6,1.5c13.5,4.6,16,11.7,14.4,18.5
			l25.6,25.6c1.2-0.7,1.9-1.1,1.9-1.1C368.1,185.9,371.6,175.3,371.6,175.3z"/>
	</g>
	<g id="XMLID_38_">
		<path id="XMLID_41_" class="st14" d="M142.3,125.4c-27.8,8.9-25.2,38.1-25.2,38.1c7.7,34.9,42.7,31.2,42.7,31.2
			c80.4-30.4,112.8-25.5,120.8-23.3l-31.1-31.1c-34.8-0.7-60.9-9.3-60.9-9.3C154.3,120,142.3,125.4,142.3,125.4z"/>
		<path id="XMLID_40_" class="st14" d="M255.5,271.2c23.4-28.9,65.7-54.1,68.9-56l-26.9-26.9c-0.9,10.5-13.7,20.9-13.7,20.9
			c-32.9,27.2-62,47.4-84.8,61.8l30.2,30.2C243.6,281.7,255.5,271.2,255.5,271.2z"/>
		<path id="XMLID_39_" class="st14" d="M381.4,350.2c0,0,12.9-28.1-18.8-45.5c-2.5-1.1-5.8-2.3-9.8-2.7c-10.3-1.1-18.3,3.2-21.4,5.1
			c-7.8,6.1-16.7,12.5-26.8,18.6c-11.6,7.1-22.9,12.8-33.5,17.5l19.4,19.4c10.1,0.5,28.2,2.5,53.3,9.7
			C343.8,372.2,371,377.4,381.4,350.2z"/>
	</g>
	<g id="XMLID_35_">
		<path id="XMLID_37_" class="st15" d="M121.3,331.9c-1.4,20,15.1,31.7,15.9,32.2c1.1,0.8,20.9,14.7,42.5,5.5
			c14.8-6.3,20.8-19.3,22.2-22.5c8.8-19,18.9-34.7,28-46.9L200,270.4c-33.6,21.3-54.1,30.1-54.1,30.1
			C132,305.2,122.3,317.7,121.3,331.9z"/>
		<path id="XMLID_36_" class="st15" d="M251,352.4c0,0-1.5,12.9,30.2,10.1c0,0,3.8-0.3,11,0.1l-20-20c-6.6,2.9-12.9,5.4-18.8,7.6
			C252.6,350.9,251.8,351.6,251,352.4z"/>
	</g>
</g>
<g id="_x31_700">
	<rect id="XMLID_54_" x="0.5" y="0" class="st3" width="500" height="500"/>
	<g id="XMLID_52_">
		<path id="XMLID_53_" class="st16" d="M371.6,175.3c18.4-28.5-5.2-47.8-5.2-47.8c-20.2-17.9-46.6-0.2-46.6-0.2
			c-34.6,15.1-57.4,12.9-57.4,12.9c-5.4,0.2-10.6,0.2-15.6,0.1l30.4,30.4c3.9,0.7,5.6,1.5,5.6,1.5c13.5,4.6,16,11.7,14.4,18.5
			l25.6,25.6c1.2-0.7,1.9-1.1,1.9-1.1C368.1,185.9,371.6,175.3,371.6,175.3z"/>
	</g>
	<g id="XMLID_48_">
		<path id="XMLID_51_" class="st17" d="M142.3,125.4c-27.8,8.9-25.2,38.1-25.2,38.1c7.7,34.9,42.7,31.2,42.7,31.2
			c80.4-30.4,112.8-25.5,120.8-23.3l-31.1-31.1c-34.8-0.7-60.9-9.3-60.9-9.3C154.3,120,142.3,125.4,142.3,125.4z"/>
		<path id="XMLID_50_" class="st17" d="M255.5,271.2c23.4-28.9,65.7-54.1,68.9-56l-26.9-26.9c-0.9,10.5-13.7,20.9-13.7,20.9
			c-32.9,27.2-62,47.4-84.8,61.8l30.2,30.2C243.6,281.7,255.5,271.2,255.5,271.2z"/>
		<path id="XMLID_49_" class="st17" d="M381.4,350.2c0,0,12.9-28.1-18.8-45.5c-2.5-1.1-5.8-2.3-9.8-2.7c-10.3-1.1-18.3,3.2-21.4,5.1
			c-7.8,6.1-16.7,12.5-26.8,18.6c-11.6,7.1-22.9,12.8-33.5,17.5l19.4,19.4c10.1,0.5,28.2,2.5,53.3,9.7
			C343.8,372.2,371,377.4,381.4,350.2z"/>
	</g>
	<g id="XMLID_45_">
		<path id="XMLID_47_" class="st18" d="M121.3,331.9c-1.4,20,15.1,31.7,15.9,32.2c1.1,0.8,20.9,14.7,42.5,5.5
			c14.8-6.3,20.8-19.3,22.2-22.5c8.8-19,18.9-34.7,28-46.9L200,270.4c-33.6,21.3-54.1,30.1-54.1,30.1
			C132,305.2,122.3,317.7,121.3,331.9z"/>
		<path id="XMLID_46_" class="st18" d="M251,352.4c0,0-1.5,12.9,30.2,10.1c0,0,3.8-0.3,11,0.1l-20-20c-6.6,2.9-12.9,5.4-18.8,7.6
			C252.6,350.9,251.8,351.6,251,352.4z"/>
	</g>
</g>
<g id="_x31_800">
	<rect id="XMLID_64_" x="0.5" y="0" class="st3" width="500" height="500"/>
	<g id="XMLID_62_">
		<path id="XMLID_63_" class="st19" d="M371.6,175.3c18.4-28.5-5.2-47.8-5.2-47.8c-20.2-17.9-46.6-0.2-46.6-0.2
			c-34.6,15.1-57.4,12.9-57.4,12.9c-5.4,0.2-10.6,0.2-15.6,0.1l30.4,30.4c3.9,0.7,5.6,1.5,5.6,1.5c13.5,4.6,16,11.7,14.4,18.5
			l25.6,25.6c1.2-0.7,1.9-1.1,1.9-1.1C368.1,185.9,371.6,175.3,371.6,175.3z"/>
	</g>
	<g id="XMLID_58_">
		<path id="XMLID_61_" class="st20" d="M142.3,125.4c-27.8,8.9-25.2,38.1-25.2,38.1c7.7,34.9,42.7,31.2,42.7,31.2
			c80.4-30.4,112.8-25.5,120.8-23.3l-31.1-31.1c-34.8-0.7-60.9-9.3-60.9-9.3C154.3,120,142.3,125.4,142.3,125.4z"/>
		<path id="XMLID_60_" class="st20" d="M255.5,271.2c23.4-28.9,65.7-54.1,68.9-56l-26.9-26.9c-0.9,10.5-13.7,20.9-13.7,20.9
			c-32.9,27.2-62,47.4-84.8,61.8l30.2,30.2C243.6,281.7,255.5,271.2,255.5,271.2z"/>
		<path id="XMLID_59_" class="st20" d="M381.4,350.2c0,0,12.9-28.1-18.8-45.5c-2.5-1.1-5.8-2.3-9.8-2.7c-10.3-1.1-18.3,3.2-21.4,5.1
			c-7.8,6.1-16.7,12.5-26.8,18.6c-11.6,7.1-22.9,12.8-33.5,17.5l19.4,19.4c10.1,0.5,28.2,2.5,53.3,9.7
			C343.8,372.2,371,377.4,381.4,350.2z"/>
	</g>
	<g id="XMLID_55_">
		<path id="XMLID_57_" class="st21" d="M121.3,331.9c-1.4,20,15.1,31.7,15.9,32.2c1.1,0.8,20.9,14.7,42.5,5.5
			c14.8-6.3,20.8-19.3,22.2-22.5c8.8-19,18.9-34.7,28-46.9L200,270.4c-33.6,21.3-54.1,30.1-54.1,30.1
			C132,305.2,122.3,317.7,121.3,331.9z"/>
		<path id="XMLID_56_" class="st21" d="M251,352.4c0,0-1.5,12.9,30.2,10.1c0,0,3.8-0.3,11,0.1l-20-20c-6.6,2.9-12.9,5.4-18.8,7.6
			C252.6,350.9,251.8,351.6,251,352.4z"/>
	</g>
</g>
<g id="_x31_900">
	<rect id="XMLID_74_" x="0.5" y="0" class="st3" width="500" height="500"/>
	<g id="XMLID_72_">
		<path id="XMLID_73_" class="st22" d="M371.6,175.3c18.4-28.5-5.2-47.8-5.2-47.8c-20.2-17.9-46.6-0.2-46.6-0.2
			c-34.6,15.1-57.4,12.9-57.4,12.9c-5.4,0.2-10.6,0.2-15.6,0.1l30.4,30.4c3.9,0.7,5.6,1.5,5.6,1.5c13.5,4.6,16,11.7,14.4,18.5
			l25.6,25.6c1.2-0.7,1.9-1.1,1.9-1.1C368.1,185.9,371.6,175.3,371.6,175.3z"/>
	</g>
	<g id="XMLID_68_">
		<path id="XMLID_71_" class="st23" d="M142.3,125.4c-27.8,8.9-25.2,38.1-25.2,38.1c7.7,34.9,42.7,31.2,42.7,31.2
			c80.4-30.4,112.8-25.5,120.8-23.3l-31.1-31.1c-34.8-0.7-60.9-9.3-60.9-9.3C154.3,120,142.3,125.4,142.3,125.4z"/>
		<path id="XMLID_70_" class="st23" d="M255.5,271.2c23.4-28.9,65.7-54.1,68.9-56l-26.9-26.9c-0.9,10.5-13.7,20.9-13.7,20.9
			c-32.9,27.2-62,47.4-84.8,61.8l30.2,30.2C243.6,281.7,255.5,271.2,255.5,271.2z"/>
		<path id="XMLID_69_" class="st23" d="M381.4,350.2c0,0,12.9-28.1-18.8-45.5c-2.5-1.1-5.8-2.3-9.8-2.7c-10.3-1.1-18.3,3.2-21.4,5.1
			c-7.8,6.1-16.7,12.5-26.8,18.6c-11.6,7.1-22.9,12.8-33.5,17.5l19.4,19.4c10.1,0.5,28.2,2.5,53.3,9.7
			C343.8,372.2,371,377.4,381.4,350.2z"/>
	</g>
	<g id="XMLID_65_">
		<path id="XMLID_67_" class="st24" d="M121.3,331.9c-1.4,20,15.1,31.7,15.9,32.2c1.1,0.8,20.9,14.7,42.5,5.5
			c14.8-6.3,20.8-19.3,22.2-22.5c8.8-19,18.9-34.7,28-46.9L200,270.4c-33.6,21.3-54.1,30.1-54.1,30.1
			C132,305.2,122.3,317.7,121.3,331.9z"/>
		<path id="XMLID_66_" class="st24" d="M251,352.4c0,0-1.5,12.9,30.2,10.1c0,0,3.8-0.3,11,0.1l-20-20c-6.6,2.9-12.9,5.4-18.8,7.6
			C252.6,350.9,251.8,351.6,251,352.4z"/>
	</g>
</g>
</svg>
