<?xml version="1.0" encoding="utf-8"?>
<!-- Generator: Adobe Illustrator 19.0.0, SVG Export Plug-In . SVG Version: 6.00 Build 0)  -->
<svg version="1.1" id="Layer_1" xmlns="http://www.w3.org/2000/svg" xmlns:xlink="http://www.w3.org/1999/xlink" x="0px" y="0px"
	 viewBox="0 0 500 500" style="enable-background:new 0 0 500 500;" xml:space="preserve">
<style type="text/css">
	.st0{fill:#FFFFFF;}
</style>
<rect id="XMLID_4_" x="0.5" y="0" class="st0" width="500" height="500"/>
<g id="XMLID_1_">
	<path id="XMLID_2_" d="M117.1,163.6c0,0-2.6-29.2,25.2-38.1c0,0,12-5.4,46.4,5.7c0,0,32.7,10.8,73.7,9.2c0,0,22.8,2.1,57.4-12.9
		c0,0,26.4-17.7,46.6,0.2c0,0,23.5,19.3,5.2,47.8c0,0-3.5,10.5-47,39.8c0,0-44.7,26-69.1,56.1c0,0-31.3,27.6-53.6,76
		c-1.4,3.2-7.4,16.2-22.2,22.5c-21.5,9.2-41.4-4.7-42.5-5.5c-0.7-0.5-17.3-12.2-15.9-32.2c1-14.2,10.7-26.7,24.5-31.5
		c0,0,57.4-24.7,137.9-91.2c0,0,31.7-25.8-1.1-37c0,0-27.9-13.4-122.9,22.5C159.8,194.7,124.8,198.4,117.1,163.6z"/>
	<path id="XMLID_3_" d="M251,352.4c0,0-1.5,12.9,30.2,10.1c0,0,22.2-1.9,62.6,9.7c0,0,27.2,5.2,37.6-22c0,0,12.9-28.1-18.8-45.5
		c-2.5-1.1-5.8-2.3-9.8-2.7c-10.3-1.1-18.3,3.2-21.4,5.1c-7.8,6.1-16.7,12.5-26.8,18.6c-18.5,11.3-36,19.1-51.2,24.5
		C252.6,350.9,251.8,351.6,251,352.4z"/>
</g>
</svg>
